<svg xmlns="http://www.w3.org/2000/svg" version="1.1" xmlns:xlink="http://www.w3.org/1999/xlink" xmlns:svgjs="http://svgjs.com/svgjs" width="1440" height="560" preserveAspectRatio="none" viewBox="0 0 1440 560"><g mask="url(&quot;#SvgjsMask1003&quot;)" fill="none"><rect width="1440" height="560" x="0" y="0" fill="url(#SvgjsLinearGradient1004)"></rect><path d="M-46.77 373.6L-46.77 373.6" stroke="#132e65" stroke-width="1.5"></path><path d="M-46.77 373.6L51.55 382.55" stroke="#132e65" stroke-width="1.5"></path><path d="M-46.77 373.6L-47.6 536.68" stroke="#132e65" stroke-width="1.5"></path><path d="M-46.77 373.6L93.03 526.95" stroke="#132e65" stroke-width="1.5"></path><path d="M-47.6 536.68L-47.6 536.68" stroke="#132e65" stroke-width="1.5"></path><path d="M-47.6 536.68L-50.44 647.27" stroke="#132e65" stroke-width="1.5"></path><path d="M-47.6 536.68L93.03 526.95" stroke="#132e65" stroke-width="1.5"></path><path d="M-50.44 647.27L-50.44 647.27" stroke="#132e65" stroke-width="1.5"></path><path d="M-50.44 647.27L93.03 526.95" stroke="#132e65" stroke-width="1.5"></path><path d="M-50.44 647.27L188.28 531.11" stroke="#132e65" stroke-width="1.5"></path><path d="M-50.44 647.27L219.12 664.48" stroke="#132e65" stroke-width="1.5"></path><path d="M-50.44 647.27L-46.77 373.6" stroke="#132e65" stroke-width="1.5"></path><path d="M51.55 382.55L51.55 382.55" stroke="#132e65" stroke-width="1.5"></path><path d="M51.55 382.55L93.03 526.95" stroke="#132e65" stroke-width="1.5"></path><path d="M51.55 382.55L205.64 407.45" stroke="#132e65" stroke-width="1.5"></path><path d="M93.03 526.95L93.03 526.95" stroke="#132e65" stroke-width="1.5"></path><path d="M93.03 526.95L188.28 531.11" stroke="#132e65" stroke-width="1.5"></path><path d="M93.03 526.95L205.64 407.45" stroke="#132e65" stroke-width="1.5"></path><path d="M93.03 526.95L219.12 664.48" stroke="#132e65" stroke-width="1.5"></path><path d="M205.64 407.45L205.64 407.45" stroke="#132e65" stroke-width="1.5"></path><path d="M205.64 407.45L188.28 531.11" stroke="#132e65" stroke-width="1.5"></path><path d="M205.64 407.45L379.88 392.1" stroke="#132e65" stroke-width="1.5"></path><path d="M205.64 407.45L408.47 517.6" stroke="#132e65" stroke-width="1.5"></path><path d="M205.64 407.45L-46.77 373.6" stroke="#132e65" stroke-width="1.5"></path><path d="M188.28 531.11L188.28 531.11" stroke="#132e65" stroke-width="1.5"></path><path d="M188.28 531.11L219.12 664.48" stroke="#132e65" stroke-width="1.5"></path><path d="M188.28 531.11L338.52 664.84" stroke="#132e65" stroke-width="1.5"></path><path d="M188.28 531.11L51.55 382.55" stroke="#132e65" stroke-width="1.5"></path><path d="M188.28 531.11L408.47 517.6" stroke="#132e65" stroke-width="1.5"></path><path d="M219.12 664.48L219.12 664.48" stroke="#132e65" stroke-width="1.5"></path><path d="M219.12 664.48L338.52 664.84" stroke="#132e65" stroke-width="1.5"></path><path d="M219.12 664.48L408.47 517.6" stroke="#132e65" stroke-width="1.5"></path><path d="M379.88 392.1L379.88 392.1" stroke="#132e65" stroke-width="1.5"></path><path d="M379.88 392.1L408.47 517.6" stroke="#132e65" stroke-width="1.5"></path><path d="M379.88 392.1L494.7 494.81" stroke="#132e65" stroke-width="1.5"></path><path d="M379.88 392.1L535.17 385.86" stroke="#132e65" stroke-width="1.5"></path><path d="M408.47 517.6L408.47 517.6" stroke="#132e65" stroke-width="1.5"></path><path d="M408.47 517.6L494.7 494.81" stroke="#132e65" stroke-width="1.5"></path><path d="M408.47 517.6L338.52 664.84" stroke="#132e65" stroke-width="1.5"></path><path d="M408.47 517.6L535.17 385.86" stroke="#132e65" stroke-width="1.5"></path><path d="M408.47 517.6L546.12 685.59" stroke="#132e65" stroke-width="1.5"></path><path d="M338.52 664.84L338.52 664.84" stroke="#132e65" stroke-width="1.5"></path><path d="M535.17 385.86L535.17 385.86" stroke="#132e65" stroke-width="1.5"></path><path d="M535.17 385.86L642.25 343.19" stroke="#132e65" stroke-width="1.5"></path><path d="M535.17 385.86L494.7 494.81" stroke="#132e65" stroke-width="1.5"></path><path d="M494.7 494.81L494.7 494.81" stroke="#132e65" stroke-width="1.5"></path><path d="M546.12 685.59L546.12 685.59" stroke="#132e65" stroke-width="1.5"></path><path d="M546.12 685.59L669.45 644.14" stroke="#132e65" stroke-width="1.5"></path><path d="M546.12 685.59L494.7 494.81" stroke="#132e65" stroke-width="1.5"></path><path d="M642.25 343.19L642.25 343.19" stroke="#132e65" stroke-width="1.5"></path><path d="M642.25 343.19L688.98 492.61" stroke="#132e65" stroke-width="1.5"></path><path d="M642.25 343.19L827.68 371.49" stroke="#132e65" stroke-width="1.5"></path><path d="M642.25 343.19L494.7 494.81" stroke="#132e65" stroke-width="1.5"></path><path d="M642.25 343.19L821.52 209.98" stroke="#132e65" stroke-width="1.5"></path><path d="M642.25 343.19L379.88 392.1" stroke="#132e65" stroke-width="1.5"></path><path d="M688.98 492.61L688.98 492.61" stroke="#132e65" stroke-width="1.5"></path><path d="M688.98 492.61L669.45 644.14" stroke="#132e65" stroke-width="1.5"></path><path d="M669.45 644.14L669.45 644.14" stroke="#132e65" stroke-width="1.5"></path><path d="M669.45 644.14L857.95 660.75" stroke="#132e65" stroke-width="1.5"></path><path d="M859.28 110.41L859.28 110.41" stroke="#132e65" stroke-width="1.5"></path><path d="M859.28 110.41L943.95 64.68" stroke="#132e65" stroke-width="1.5"></path><path d="M821.52 209.98L821.52 209.98" stroke="#132e65" stroke-width="1.5"></path><path d="M821.52 209.98L859.28 110.41" stroke="#132e65" stroke-width="1.5"></path><path d="M821.52 209.98L827.68 371.49" stroke="#132e65" stroke-width="1.5"></path><path d="M821.52 209.98L1000.74 214.68" stroke="#132e65" stroke-width="1.5"></path><path d="M827.68 371.49L827.68 371.49" stroke="#132e65" stroke-width="1.5"></path><path d="M827.68 371.49L963.57 365" stroke="#132e65" stroke-width="1.5"></path><path d="M827.68 371.49L860.66 519.09" stroke="#132e65" stroke-width="1.5"></path><path d="M860.66 519.09L860.66 519.09" stroke="#132e65" stroke-width="1.5"></path><path d="M860.66 519.09L975.17 504.9" stroke="#132e65" stroke-width="1.5"></path><path d="M857.95 660.75L857.95 660.75" stroke="#132e65" stroke-width="1.5"></path><path d="M857.95 660.75L985.56 667.09" stroke="#132e65" stroke-width="1.5"></path><path d="M857.95 660.75L860.66 519.09" stroke="#132e65" stroke-width="1.5"></path><path d="M857.95 660.75L975.17 504.9" stroke="#132e65" stroke-width="1.5"></path><path d="M984.93 -55.02L984.93 -55.02" stroke="#132e65" stroke-width="1.5"></path><path d="M984.93 -55.02L943.95 64.68" stroke="#132e65" stroke-width="1.5"></path><path d="M984.93 -55.02L1125.6 -73.02" stroke="#132e65" stroke-width="1.5"></path><path d="M984.93 -55.02L859.28 110.41" stroke="#132e65" stroke-width="1.5"></path><path d="M984.93 -55.02L1000.74 214.68" stroke="#132e65" stroke-width="1.5"></path><path d="M943.95 64.68L943.95 64.68" stroke="#132e65" stroke-width="1.5"></path><path d="M943.95 64.68L1000.74 214.68" stroke="#132e65" stroke-width="1.5"></path><path d="M1000.74 214.68L1000.74 214.68" stroke="#132e65" stroke-width="1.5"></path><path d="M1000.74 214.68L1093.26 217.78" stroke="#132e65" stroke-width="1.5"></path><path d="M1000.74 214.68L963.57 365" stroke="#132e65" stroke-width="1.5"></path><path d="M1000.74 214.68L859.28 110.41" stroke="#132e65" stroke-width="1.5"></path><path d="M963.57 365L963.57 365" stroke="#132e65" stroke-width="1.5"></path><path d="M963.57 365L975.17 504.9" stroke="#132e65" stroke-width="1.5"></path><path d="M963.57 365L860.66 519.09" stroke="#132e65" stroke-width="1.5"></path><path d="M975.17 504.9L975.17 504.9" stroke="#132e65" stroke-width="1.5"></path><path d="M975.17 504.9L1117.73 493.41" stroke="#132e65" stroke-width="1.5"></path><path d="M975.17 504.9L985.56 667.09" stroke="#132e65" stroke-width="1.5"></path><path d="M985.56 667.09L985.56 667.09" stroke="#132e65" stroke-width="1.5"></path><path d="M985.56 667.09L1092.71 686.35" stroke="#132e65" stroke-width="1.5"></path><path d="M1125.6 -73.02L1125.6 -73.02" stroke="#132e65" stroke-width="1.5"></path><path d="M1125.6 -73.02L1298.22 -87.93" stroke="#132e65" stroke-width="1.5"></path><path d="M1125.6 -73.02L943.95 64.68" stroke="#132e65" stroke-width="1.5"></path><path d="M1093.26 217.78L1093.26 217.78" stroke="#132e65" stroke-width="1.5"></path><path d="M1093.26 217.78L1156.31 338.75" stroke="#132e65" stroke-width="1.5"></path><path d="M1093.26 217.78L963.57 365" stroke="#132e65" stroke-width="1.5"></path><path d="M1093.26 217.78L943.95 64.68" stroke="#132e65" stroke-width="1.5"></path><path d="M1156.31 338.75L1156.31 338.75" stroke="#132e65" stroke-width="1.5"></path><path d="M1156.31 338.75L1259.11 386.54" stroke="#132e65" stroke-width="1.5"></path><path d="M1117.73 493.41L1117.73 493.41" stroke="#132e65" stroke-width="1.5"></path><path d="M1117.73 493.41L1156.31 338.75" stroke="#132e65" stroke-width="1.5"></path><path d="M1092.71 686.35L1092.71 686.35" stroke="#132e65" stroke-width="1.5"></path><path d="M1092.71 686.35L1274.62 649.47" stroke="#132e65" stroke-width="1.5"></path><path d="M1298.22 -87.93L1298.22 -87.93" stroke="#132e65" stroke-width="1.5"></path><path d="M1298.22 -87.93L1410.07 -104.12" stroke="#132e65" stroke-width="1.5"></path><path d="M1298.22 -87.93L1434.08 87.61" stroke="#132e65" stroke-width="1.5"></path><path d="M1298.22 -87.93L1547.47 -109.68" stroke="#132e65" stroke-width="1.5"></path><path d="M1298.22 -87.93L1544.16 93" stroke="#132e65" stroke-width="1.5"></path><path d="M1298.22 -87.93L984.93 -55.02" stroke="#132e65" stroke-width="1.5"></path><path d="M1259.11 386.54L1259.11 386.54" stroke="#132e65" stroke-width="1.5"></path><path d="M1259.11 386.54L1289.61 544.08" stroke="#132e65" stroke-width="1.5"></path><path d="M1259.11 386.54L1117.73 493.41" stroke="#132e65" stroke-width="1.5"></path><path d="M1259.11 386.54L1437.99 393.96" stroke="#132e65" stroke-width="1.5"></path><path d="M1289.61 544.08L1289.61 544.08" stroke="#132e65" stroke-width="1.5"></path><path d="M1289.61 544.08L1274.62 649.47" stroke="#132e65" stroke-width="1.5"></path><path d="M1289.61 544.08L1425.93 532.22" stroke="#132e65" stroke-width="1.5"></path><path d="M1289.61 544.08L1395.39 655.93" stroke="#132e65" stroke-width="1.5"></path><path d="M1289.61 544.08L1117.73 493.41" stroke="#132e65" stroke-width="1.5"></path><path d="M1274.62 649.47L1274.62 649.47" stroke="#132e65" stroke-width="1.5"></path><path d="M1274.62 649.47L1395.39 655.93" stroke="#132e65" stroke-width="1.5"></path><path d="M1274.62 649.47L1425.93 532.22" stroke="#132e65" stroke-width="1.5"></path><path d="M1410.07 -104.12L1410.07 -104.12" stroke="#132e65" stroke-width="1.5"></path><path d="M1410.07 -104.12L1547.47 -109.68" stroke="#132e65" stroke-width="1.5"></path><path d="M1410.07 -104.12L1434.08 87.61" stroke="#132e65" stroke-width="1.5"></path><path d="M1410.07 -104.12L1544.16 93" stroke="#132e65" stroke-width="1.5"></path><path d="M1410.07 -104.12L1125.6 -73.02" stroke="#132e65" stroke-width="1.5"></path><path d="M1434.08 87.61L1434.08 87.61" stroke="#132e65" stroke-width="1.5"></path><path d="M1434.08 87.61L1544.16 93" stroke="#132e65" stroke-width="1.5"></path><path d="M1434.08 87.61L1400.89 215.05" stroke="#132e65" stroke-width="1.5"></path><path d="M1400.89 215.05L1400.89 215.05" stroke="#132e65" stroke-width="1.5"></path><path d="M1400.89 215.05L1564.43 242.34" stroke="#132e65" stroke-width="1.5"></path><path d="M1400.89 215.05L1437.99 393.96" stroke="#132e65" stroke-width="1.5"></path><path d="M1400.89 215.05L1544.16 93" stroke="#132e65" stroke-width="1.5"></path><path d="M1400.89 215.05L1259.11 386.54" stroke="#132e65" stroke-width="1.5"></path><path d="M1400.89 215.05L1552.41 397.47" stroke="#132e65" stroke-width="1.5"></path><path d="M1437.99 393.96L1437.99 393.96" stroke="#132e65" stroke-width="1.5"></path><path d="M1437.99 393.96L1552.41 397.47" stroke="#132e65" stroke-width="1.5"></path><path d="M1437.99 393.96L1425.93 532.22" stroke="#132e65" stroke-width="1.5"></path><path d="M1437.99 393.96L1586.43 505.97" stroke="#132e65" stroke-width="1.5"></path><path d="M1437.99 393.96L1564.43 242.34" stroke="#132e65" stroke-width="1.5"></path><path d="M1425.93 532.22L1425.93 532.22" stroke="#132e65" stroke-width="1.5"></path><path d="M1425.93 532.22L1395.39 655.93" stroke="#132e65" stroke-width="1.5"></path><path d="M1425.93 532.22L1586.43 505.97" stroke="#132e65" stroke-width="1.5"></path><path d="M1425.93 532.22L1552.41 397.47" stroke="#132e65" stroke-width="1.5"></path><path d="M1395.39 655.93L1395.39 655.93" stroke="#132e65" stroke-width="1.5"></path><path d="M1547.47 -109.68L1547.47 -109.68" stroke="#132e65" stroke-width="1.5"></path><path d="M1547.47 -109.68L1544.16 93" stroke="#132e65" stroke-width="1.5"></path><path d="M1547.47 -109.68L1434.08 87.61" stroke="#132e65" stroke-width="1.5"></path><path d="M1547.47 -109.68L1564.43 242.34" stroke="#132e65" stroke-width="1.5"></path><path d="M1547.47 -109.68L1400.89 215.05" stroke="#132e65" stroke-width="1.5"></path><path d="M1544.16 93L1544.16 93" stroke="#132e65" stroke-width="1.5"></path><path d="M1544.16 93L1564.43 242.34" stroke="#132e65" stroke-width="1.5"></path><path d="M1564.43 242.34L1564.43 242.34" stroke="#132e65" stroke-width="1.5"></path><path d="M1552.41 397.47L1552.41 397.47" stroke="#132e65" stroke-width="1.5"></path><path d="M1552.41 397.47L1586.43 505.97" stroke="#132e65" stroke-width="1.5"></path><path d="M1552.41 397.47L1564.43 242.34" stroke="#132e65" stroke-width="1.5"></path><path d="M1552.41 397.47L1259.11 386.54" stroke="#132e65" stroke-width="1.5"></path><path d="M1586.43 505.97L1586.43 505.97" stroke="#132e65" stroke-width="1.5"></path><path d="M1586.43 505.97L1590.07 707.18" stroke="#132e65" stroke-width="1.5"></path><path d="M1586.43 505.97L1395.39 655.93" stroke="#132e65" stroke-width="1.5"></path><path d="M1590.07 707.18L1590.07 707.18" stroke="#132e65" stroke-width="1.5"></path><path d="M1590.07 707.18L1395.39 655.93" stroke="#132e65" stroke-width="1.5"></path><path d="M1590.07 707.18L1425.93 532.22" stroke="#132e65" stroke-width="1.5"></path><path d="M1590.07 707.18L1552.41 397.47" stroke="#132e65" stroke-width="1.5"></path><circle r="5" cx="-46.77" cy="373.6" fill="#132e65"></circle><circle r="5" cx="-47.6" cy="536.68" fill="#132e65"></circle><circle r="5" cx="-50.44" cy="647.27" fill="#132e65"></circle><circle r="5" cx="51.55" cy="382.55" fill="#132e65"></circle><circle r="5" cx="93.03" cy="526.95" fill="#132e65"></circle><circle r="5" cx="205.64" cy="407.45" fill="#132e65"></circle><circle r="5" cx="188.28" cy="531.11" fill="#132e65"></circle><circle r="5" cx="219.12" cy="664.48" fill="#132e65"></circle><circle r="5" cx="379.88" cy="392.1" fill="#132e65"></circle><circle r="5" cx="408.47" cy="517.6" fill="#132e65"></circle><circle r="5" cx="338.52" cy="664.84" fill="#132e65"></circle><circle r="5" cx="535.17" cy="385.86" fill="#132e65"></circle><circle r="5" cx="494.7" cy="494.81" fill="#132e65"></circle><circle r="5" cx="546.12" cy="685.59" fill="#132e65"></circle><circle r="5" cx="642.25" cy="343.19" fill="#132e65"></circle><circle r="5" cx="688.98" cy="492.61" fill="#132e65"></circle><circle r="5" cx="669.45" cy="644.14" fill="#132e65"></circle><circle r="5" cx="859.28" cy="110.41" fill="#132e65"></circle><circle r="5" cx="821.52" cy="209.98" fill="#132e65"></circle><circle r="5" cx="827.68" cy="371.49" fill="#132e65"></circle><circle r="5" cx="860.66" cy="519.09" fill="#132e65"></circle><circle r="5" cx="857.95" cy="660.75" fill="#132e65"></circle><circle r="5" cx="984.93" cy="-55.02" fill="#132e65"></circle><circle r="5" cx="943.95" cy="64.68" fill="#132e65"></circle><circle r="5" cx="1000.74" cy="214.68" fill="#132e65"></circle><circle r="5" cx="963.57" cy="365" fill="#132e65"></circle><circle r="5" cx="975.17" cy="504.9" fill="#132e65"></circle><circle r="5" cx="985.56" cy="667.09" fill="#132e65"></circle><circle r="5" cx="1125.6" cy="-73.02" fill="#132e65"></circle><circle r="5" cx="1093.26" cy="217.78" fill="#132e65"></circle><circle r="5" cx="1156.31" cy="338.75" fill="#132e65"></circle><circle r="5" cx="1117.73" cy="493.41" fill="#132e65"></circle><circle r="5" cx="1092.71" cy="686.35" fill="#132e65"></circle><circle r="5" cx="1298.22" cy="-87.93" fill="#132e65"></circle><circle r="5" cx="1259.11" cy="386.54" fill="#132e65"></circle><circle r="5" cx="1289.61" cy="544.08" fill="#132e65"></circle><circle r="5" cx="1274.62" cy="649.47" fill="#132e65"></circle><circle r="5" cx="1410.07" cy="-104.12" fill="#132e65"></circle><circle r="5" cx="1434.08" cy="87.61" fill="#132e65"></circle><circle r="5" cx="1400.89" cy="215.05" fill="#132e65"></circle><circle r="5" cx="1437.99" cy="393.96" fill="#132e65"></circle><circle r="5" cx="1425.93" cy="532.22" fill="#132e65"></circle><circle r="5" cx="1395.39" cy="655.93" fill="#132e65"></circle><circle r="5" cx="1547.47" cy="-109.68" fill="#132e65"></circle><circle r="5" cx="1544.16" cy="93" fill="#132e65"></circle><circle r="5" cx="1564.43" cy="242.34" fill="#132e65"></circle><circle r="5" cx="1552.41" cy="397.47" fill="#132e65"></circle><circle r="5" cx="1586.43" cy="505.97" fill="#132e65"></circle><circle r="5" cx="1590.07" cy="707.18" fill="#132e65"></circle><path d="M-100.49 549.02L-100.49 549.02" stroke="hsl(228.5, 77.2%, 51.5%)" stroke-width="1.5"></path><path d="M-100.49 549.02L-100.21 692.14" stroke="hsl(228.5, 77.2%, 51.5%)" stroke-width="1.5"></path><path d="M-100.49 549.02L89.73 503.05" stroke="hsl(228.5, 77.2%, 51.5%)" stroke-width="1.5"></path><path d="M-100.49 549.02L199.99 538.67" stroke="hsl(228.5, 77.2%, 51.5%)" stroke-width="1.5"></path><path d="M-100.49 549.02L208.24 689.53" stroke="hsl(228.5, 77.2%, 51.5%)" stroke-width="1.5"></path><path d="M1295.68 88.66L1295.68 88.66" stroke="hsl(228.5, 77.2%, 51.5%)" stroke-width="1.5"></path><path d="M1295.68 88.66L1402.41 105.99" stroke="hsl(228.5, 77.2%, 51.5%)" stroke-width="1.5"></path><path d="M1295.68 88.66L1246.79 189.76" stroke="hsl(228.5, 77.2%, 51.5%)" stroke-width="1.5"></path><path d="M1295.68 88.66L1245.13 -56.91" stroke="hsl(228.5, 77.2%, 51.5%)" stroke-width="1.5"></path><path d="M1402.41 105.99L1402.41 105.99" stroke="hsl(228.5, 77.2%, 51.5%)" stroke-width="1.5"></path><path d="M1402.41 105.99L1400.08 245.14" stroke="hsl(228.5, 77.2%, 51.5%)" stroke-width="1.5"></path><path d="M1402.41 105.99L1569.63 71.61" stroke="hsl(228.5, 77.2%, 51.5%)" stroke-width="1.5"></path><path d="M1402.41 105.99L1246.79 189.76" stroke="hsl(228.5, 77.2%, 51.5%)" stroke-width="1.5"></path><path d="M1446.05 690.57L1446.05 690.57" stroke="hsl(228.5, 77.2%, 51.5%)" stroke-width="1.5"></path><path d="M1446.05 690.57L1604.68 648.5" stroke="hsl(228.5, 77.2%, 51.5%)" stroke-width="1.5"></path><path d="M1446.05 690.57L1277.14 660.67" stroke="hsl(228.5, 77.2%, 51.5%)" stroke-width="1.5"></path><path d="M-100.21 692.14L-100.21 692.14" stroke="hsl(228.5, 77.2%, 51.5%)" stroke-width="1.5"></path><path d="M-100.21 692.14L89.73 503.05" stroke="hsl(228.5, 77.2%, 51.5%)" stroke-width="1.5"></path><path d="M-100.21 692.14L208.24 689.53" stroke="hsl(228.5, 77.2%, 51.5%)" stroke-width="1.5"></path><path d="M89.73 503.05L89.73 503.05" stroke="hsl(228.5, 77.2%, 51.5%)" stroke-width="1.5"></path><path d="M89.73 503.05L199.99 538.67" stroke="hsl(228.5, 77.2%, 51.5%)" stroke-width="1.5"></path><path d="M89.73 503.05L208.24 689.53" stroke="hsl(228.5, 77.2%, 51.5%)" stroke-width="1.5"></path><path d="M199.99 538.67L199.99 538.67" stroke="hsl(228.5, 77.2%, 51.5%)" stroke-width="1.5"></path><path d="M199.99 538.67L208.24 689.53" stroke="hsl(228.5, 77.2%, 51.5%)" stroke-width="1.5"></path><path d="M199.99 538.67L356.03 497.43" stroke="hsl(228.5, 77.2%, 51.5%)" stroke-width="1.5"></path><path d="M199.99 538.67L395.2 651.41" stroke="hsl(228.5, 77.2%, 51.5%)" stroke-width="1.5"></path><path d="M208.24 689.53L208.24 689.53" stroke="hsl(228.5, 77.2%, 51.5%)" stroke-width="1.5"></path><path d="M208.24 689.53L395.2 651.41" stroke="hsl(228.5, 77.2%, 51.5%)" stroke-width="1.5"></path><path d="M208.24 689.53L356.03 497.43" stroke="hsl(228.5, 77.2%, 51.5%)" stroke-width="1.5"></path><path d="M356.03 497.43L356.03 497.43" stroke="hsl(228.5, 77.2%, 51.5%)" stroke-width="1.5"></path><path d="M356.03 497.43L395.2 651.41" stroke="hsl(228.5, 77.2%, 51.5%)" stroke-width="1.5"></path><path d="M356.03 497.43L521.15 491.77" stroke="hsl(228.5, 77.2%, 51.5%)" stroke-width="1.5"></path><path d="M395.2 651.41L395.2 651.41" stroke="hsl(228.5, 77.2%, 51.5%)" stroke-width="1.5"></path><path d="M395.2 651.41L557.54 698.07" stroke="hsl(228.5, 77.2%, 51.5%)" stroke-width="1.5"></path><path d="M395.2 651.41L521.15 491.77" stroke="hsl(228.5, 77.2%, 51.5%)" stroke-width="1.5"></path><path d="M521.15 491.77L521.15 491.77" stroke="hsl(228.5, 77.2%, 51.5%)" stroke-width="1.5"></path><path d="M521.15 491.77L638.73 410.98" stroke="hsl(228.5, 77.2%, 51.5%)" stroke-width="1.5"></path><path d="M521.15 491.77L667.37 531.97" stroke="hsl(228.5, 77.2%, 51.5%)" stroke-width="1.5"></path><path d="M557.54 698.07L557.54 698.07" stroke="hsl(228.5, 77.2%, 51.5%)" stroke-width="1.5"></path><path d="M557.54 698.07L648.62 691.95" stroke="hsl(228.5, 77.2%, 51.5%)" stroke-width="1.5"></path><path d="M557.54 698.07L667.37 531.97" stroke="hsl(228.5, 77.2%, 51.5%)" stroke-width="1.5"></path><path d="M557.54 698.07L521.15 491.77" stroke="hsl(228.5, 77.2%, 51.5%)" stroke-width="1.5"></path><path d="M557.54 698.07L794.19 683.56" stroke="hsl(228.5, 77.2%, 51.5%)" stroke-width="1.5"></path><path d="M557.54 698.07L792.82 543.47" stroke="hsl(228.5, 77.2%, 51.5%)" stroke-width="1.5"></path><path d="M638.73 410.98L638.73 410.98" stroke="hsl(228.5, 77.2%, 51.5%)" stroke-width="1.5"></path><path d="M638.73 410.98L667.37 531.97" stroke="hsl(228.5, 77.2%, 51.5%)" stroke-width="1.5"></path><path d="M667.37 531.97L667.37 531.97" stroke="hsl(228.5, 77.2%, 51.5%)" stroke-width="1.5"></path><path d="M667.37 531.97L792.82 543.47" stroke="hsl(228.5, 77.2%, 51.5%)" stroke-width="1.5"></path><path d="M648.62 691.95L648.62 691.95" stroke="hsl(228.5, 77.2%, 51.5%)" stroke-width="1.5"></path><path d="M648.62 691.95L794.19 683.56" stroke="hsl(228.5, 77.2%, 51.5%)" stroke-width="1.5"></path><path d="M648.62 691.95L667.37 531.97" stroke="hsl(228.5, 77.2%, 51.5%)" stroke-width="1.5"></path><path d="M648.62 691.95L792.82 543.47" stroke="hsl(228.5, 77.2%, 51.5%)" stroke-width="1.5"></path><path d="M648.62 691.95L521.15 491.77" stroke="hsl(228.5, 77.2%, 51.5%)" stroke-width="1.5"></path><path d="M846.86 376.76L846.86 376.76" stroke="hsl(228.5, 77.2%, 51.5%)" stroke-width="1.5"></path><path d="M846.86 376.76L1007.56 351.8" stroke="hsl(228.5, 77.2%, 51.5%)" stroke-width="1.5"></path><path d="M846.86 376.76L792.82 543.47" stroke="hsl(228.5, 77.2%, 51.5%)" stroke-width="1.5"></path><path d="M846.86 376.76L638.73 410.98" stroke="hsl(228.5, 77.2%, 51.5%)" stroke-width="1.5"></path><path d="M846.86 376.76L1011.28 525.85" stroke="hsl(228.5, 77.2%, 51.5%)" stroke-width="1.5"></path><path d="M846.86 376.76L667.37 531.97" stroke="hsl(228.5, 77.2%, 51.5%)" stroke-width="1.5"></path><path d="M846.86 376.76L1109.88 251.91" stroke="hsl(228.5, 77.2%, 51.5%)" stroke-width="1.5"></path><path d="M792.82 543.47L792.82 543.47" stroke="hsl(228.5, 77.2%, 51.5%)" stroke-width="1.5"></path><path d="M792.82 543.47L794.19 683.56" stroke="hsl(228.5, 77.2%, 51.5%)" stroke-width="1.5"></path><path d="M792.82 543.47L941.92 677.6" stroke="hsl(228.5, 77.2%, 51.5%)" stroke-width="1.5"></path><path d="M794.19 683.56L794.19 683.56" stroke="hsl(228.5, 77.2%, 51.5%)" stroke-width="1.5"></path><path d="M1007.56 351.8L1007.56 351.8" stroke="hsl(228.5, 77.2%, 51.5%)" stroke-width="1.5"></path><path d="M1007.56 351.8L1109.88 251.91" stroke="hsl(228.5, 77.2%, 51.5%)" stroke-width="1.5"></path><path d="M1007.56 351.8L1152.65 404.18" stroke="hsl(228.5, 77.2%, 51.5%)" stroke-width="1.5"></path><path d="M1011.28 525.85L1011.28 525.85" stroke="hsl(228.5, 77.2%, 51.5%)" stroke-width="1.5"></path><path d="M1011.28 525.85L1113.85 503.65" stroke="hsl(228.5, 77.2%, 51.5%)" stroke-width="1.5"></path><path d="M1011.28 525.85L941.92 677.6" stroke="hsl(228.5, 77.2%, 51.5%)" stroke-width="1.5"></path><path d="M1011.28 525.85L1007.56 351.8" stroke="hsl(228.5, 77.2%, 51.5%)" stroke-width="1.5"></path><path d="M1011.28 525.85L1152.65 404.18" stroke="hsl(228.5, 77.2%, 51.5%)" stroke-width="1.5"></path><path d="M1011.28 525.85L792.82 543.47" stroke="hsl(228.5, 77.2%, 51.5%)" stroke-width="1.5"></path><path d="M941.92 677.6L941.92 677.6" stroke="hsl(228.5, 77.2%, 51.5%)" stroke-width="1.5"></path><path d="M941.92 677.6L794.19 683.56" stroke="hsl(228.5, 77.2%, 51.5%)" stroke-width="1.5"></path><path d="M941.92 677.6L1136.28 712.33" stroke="hsl(228.5, 77.2%, 51.5%)" stroke-width="1.5"></path><path d="M941.92 677.6L1113.85 503.65" stroke="hsl(228.5, 77.2%, 51.5%)" stroke-width="1.5"></path><path d="M1109.88 251.91L1109.88 251.91" stroke="hsl(228.5, 77.2%, 51.5%)" stroke-width="1.5"></path><path d="M1109.88 251.91L1246.79 189.76" stroke="hsl(228.5, 77.2%, 51.5%)" stroke-width="1.5"></path><path d="M1109.88 251.91L1152.65 404.18" stroke="hsl(228.5, 77.2%, 51.5%)" stroke-width="1.5"></path><path d="M1109.88 251.91L1253.43 387.73" stroke="hsl(228.5, 77.2%, 51.5%)" stroke-width="1.5"></path><path d="M1109.88 251.91L1295.68 88.66" stroke="hsl(228.5, 77.2%, 51.5%)" stroke-width="1.5"></path><path d="M1109.88 251.91L1113.85 503.65" stroke="hsl(228.5, 77.2%, 51.5%)" stroke-width="1.5"></path><path d="M1152.65 404.18L1152.65 404.18" stroke="hsl(228.5, 77.2%, 51.5%)" stroke-width="1.5"></path><path d="M1152.65 404.18L1253.43 387.73" stroke="hsl(228.5, 77.2%, 51.5%)" stroke-width="1.5"></path><path d="M1152.65 404.18L1113.85 503.65" stroke="hsl(228.5, 77.2%, 51.5%)" stroke-width="1.5"></path><path d="M1113.85 503.65L1113.85 503.65" stroke="hsl(228.5, 77.2%, 51.5%)" stroke-width="1.5"></path><path d="M1136.28 712.33L1136.28 712.33" stroke="hsl(228.5, 77.2%, 51.5%)" stroke-width="1.5"></path><path d="M1136.28 712.33L1277.14 660.67" stroke="hsl(228.5, 77.2%, 51.5%)" stroke-width="1.5"></path><path d="M1136.28 712.33L1113.85 503.65" stroke="hsl(228.5, 77.2%, 51.5%)" stroke-width="1.5"></path><path d="M1136.28 712.33L1011.28 525.85" stroke="hsl(228.5, 77.2%, 51.5%)" stroke-width="1.5"></path><path d="M1136.28 712.33L1281.45 489.37" stroke="hsl(228.5, 77.2%, 51.5%)" stroke-width="1.5"></path><path d="M1245.13 -56.91L1245.13 -56.91" stroke="hsl(228.5, 77.2%, 51.5%)" stroke-width="1.5"></path><path d="M1246.79 189.76L1246.79 189.76" stroke="hsl(228.5, 77.2%, 51.5%)" stroke-width="1.5"></path><path d="M1246.79 189.76L1400.08 245.14" stroke="hsl(228.5, 77.2%, 51.5%)" stroke-width="1.5"></path><path d="M1253.43 387.73L1253.43 387.73" stroke="hsl(228.5, 77.2%, 51.5%)" stroke-width="1.5"></path><path d="M1253.43 387.73L1281.45 489.37" stroke="hsl(228.5, 77.2%, 51.5%)" stroke-width="1.5"></path><path d="M1253.43 387.73L1113.85 503.65" stroke="hsl(228.5, 77.2%, 51.5%)" stroke-width="1.5"></path><path d="M1253.43 387.73L1246.79 189.76" stroke="hsl(228.5, 77.2%, 51.5%)" stroke-width="1.5"></path><path d="M1253.43 387.73L1400.08 245.14" stroke="hsl(228.5, 77.2%, 51.5%)" stroke-width="1.5"></path><path d="M1281.45 489.37L1281.45 489.37" stroke="hsl(228.5, 77.2%, 51.5%)" stroke-width="1.5"></path><path d="M1281.45 489.37L1152.65 404.18" stroke="hsl(228.5, 77.2%, 51.5%)" stroke-width="1.5"></path><path d="M1281.45 489.37L1113.85 503.65" stroke="hsl(228.5, 77.2%, 51.5%)" stroke-width="1.5"></path><path d="M1277.14 660.67L1277.14 660.67" stroke="hsl(228.5, 77.2%, 51.5%)" stroke-width="1.5"></path><path d="M1277.14 660.67L1281.45 489.37" stroke="hsl(228.5, 77.2%, 51.5%)" stroke-width="1.5"></path><path d="M1448.63 -91.27L1448.63 -91.27" stroke="hsl(228.5, 77.2%, 51.5%)" stroke-width="1.5"></path><path d="M1448.63 -91.27L1402.41 105.99" stroke="hsl(228.5, 77.2%, 51.5%)" stroke-width="1.5"></path><path d="M1448.63 -91.27L1569.63 71.61" stroke="hsl(228.5, 77.2%, 51.5%)" stroke-width="1.5"></path><path d="M1400.08 245.14L1400.08 245.14" stroke="hsl(228.5, 77.2%, 51.5%)" stroke-width="1.5"></path><path d="M1462.13 396.14L1462.13 396.14" stroke="hsl(228.5, 77.2%, 51.5%)" stroke-width="1.5"></path><path d="M1462.13 396.14L1577.22 383.54" stroke="hsl(228.5, 77.2%, 51.5%)" stroke-width="1.5"></path><path d="M1462.13 396.14L1400.08 245.14" stroke="hsl(228.5, 77.2%, 51.5%)" stroke-width="1.5"></path><path d="M1462.13 396.14L1590.71 536.44" stroke="hsl(228.5, 77.2%, 51.5%)" stroke-width="1.5"></path><path d="M1462.13 396.14L1281.45 489.37" stroke="hsl(228.5, 77.2%, 51.5%)" stroke-width="1.5"></path><path d="M1462.13 396.14L1253.43 387.73" stroke="hsl(228.5, 77.2%, 51.5%)" stroke-width="1.5"></path><path d="M1462.13 396.14L1586.27 199.38" stroke="hsl(228.5, 77.2%, 51.5%)" stroke-width="1.5"></path><path d="M1569.63 71.61L1569.63 71.61" stroke="hsl(228.5, 77.2%, 51.5%)" stroke-width="1.5"></path><path d="M1569.63 71.61L1586.27 199.38" stroke="hsl(228.5, 77.2%, 51.5%)" stroke-width="1.5"></path><path d="M1586.27 199.38L1586.27 199.38" stroke="hsl(228.5, 77.2%, 51.5%)" stroke-width="1.5"></path><path d="M1586.27 199.38L1577.22 383.54" stroke="hsl(228.5, 77.2%, 51.5%)" stroke-width="1.5"></path><path d="M1586.27 199.38L1400.08 245.14" stroke="hsl(228.5, 77.2%, 51.5%)" stroke-width="1.5"></path><path d="M1586.27 199.38L1402.41 105.99" stroke="hsl(228.5, 77.2%, 51.5%)" stroke-width="1.5"></path><path d="M1577.22 383.54L1577.22 383.54" stroke="hsl(228.5, 77.2%, 51.5%)" stroke-width="1.5"></path><path d="M1577.22 383.54L1590.71 536.44" stroke="hsl(228.5, 77.2%, 51.5%)" stroke-width="1.5"></path><path d="M1577.22 383.54L1400.08 245.14" stroke="hsl(228.5, 77.2%, 51.5%)" stroke-width="1.5"></path><path d="M1577.22 383.54L1604.68 648.5" stroke="hsl(228.5, 77.2%, 51.5%)" stroke-width="1.5"></path><path d="M1590.71 536.44L1590.71 536.44" stroke="hsl(228.5, 77.2%, 51.5%)" stroke-width="1.5"></path><path d="M1590.71 536.44L1604.68 648.5" stroke="hsl(228.5, 77.2%, 51.5%)" stroke-width="1.5"></path><path d="M1604.68 648.5L1604.68 648.5" stroke="hsl(228.5, 77.2%, 51.5%)" stroke-width="1.5"></path><circle r="25" cx="-100.49" cy="549.02" fill="url(#SvgjsRadialGradient1005)"></circle><circle r="25" cx="1295.68" cy="88.66" fill="url(#SvgjsRadialGradient1005)"></circle><circle r="25" cx="1402.41" cy="105.99" fill="url(#SvgjsRadialGradient1005)"></circle><circle r="25" cx="1446.05" cy="690.57" fill="url(#SvgjsRadialGradient1005)"></circle><circle r="5" cx="-100.21" cy="692.14" fill="#8b9ad9"></circle><circle r="5" cx="89.73" cy="503.05" fill="#8b9ad9"></circle><circle r="5" cx="199.99" cy="538.67" fill="#8b9ad9"></circle><circle r="5" cx="208.24" cy="689.53" fill="#8b9ad9"></circle><circle r="5" cx="356.03" cy="497.43" fill="#8b9ad9"></circle><circle r="5" cx="395.2" cy="651.41" fill="#8b9ad9"></circle><circle r="5" cx="521.15" cy="491.77" fill="#8b9ad9"></circle><circle r="5" cx="557.54" cy="698.07" fill="#8b9ad9"></circle><circle r="5" cx="638.73" cy="410.98" fill="#8b9ad9"></circle><circle r="5" cx="667.37" cy="531.97" fill="#8b9ad9"></circle><circle r="5" cx="648.62" cy="691.95" fill="#8b9ad9"></circle><circle r="5" cx="846.86" cy="376.76" fill="#8b9ad9"></circle><circle r="5" cx="792.82" cy="543.47" fill="#8b9ad9"></circle><circle r="5" cx="794.19" cy="683.56" fill="#8b9ad9"></circle><circle r="5" cx="1007.56" cy="351.8" fill="#8b9ad9"></circle><circle r="5" cx="1011.28" cy="525.85" fill="#8b9ad9"></circle><circle r="5" cx="941.92" cy="677.6" fill="#8b9ad9"></circle><circle r="5" cx="1109.88" cy="251.91" fill="#8b9ad9"></circle><circle r="5" cx="1152.65" cy="404.18" fill="#8b9ad9"></circle><circle r="5" cx="1113.85" cy="503.65" fill="#8b9ad9"></circle><circle r="5" cx="1136.28" cy="712.33" fill="#8b9ad9"></circle><circle r="5" cx="1245.13" cy="-56.91" fill="#8b9ad9"></circle><circle r="5" cx="1246.79" cy="189.76" fill="#8b9ad9"></circle><circle r="5" cx="1253.43" cy="387.73" fill="#8b9ad9"></circle><circle r="5" cx="1281.45" cy="489.37" fill="#8b9ad9"></circle><circle r="5" cx="1277.14" cy="660.67" fill="#8b9ad9"></circle><circle r="5" cx="1448.63" cy="-91.27" fill="#8b9ad9"></circle><circle r="5" cx="1400.08" cy="245.14" fill="#8b9ad9"></circle><circle r="5" cx="1462.13" cy="396.14" fill="#8b9ad9"></circle><circle r="5" cx="1569.63" cy="71.61" fill="#8b9ad9"></circle><circle r="5" cx="1586.27" cy="199.38" fill="#8b9ad9"></circle><circle r="5" cx="1577.22" cy="383.54" fill="#8b9ad9"></circle><circle r="5" cx="1590.71" cy="536.44" fill="#8b9ad9"></circle><circle r="5" cx="1604.68" cy="648.5" fill="#8b9ad9"></circle></g><defs><mask id="SvgjsMask1003"><rect width="1440" height="560" fill="#ffffff"></rect></mask><linearGradient x1="15.28%" y1="-39.29%" x2="84.72%" y2="139.29%" gradientUnits="userSpaceOnUse" id="SvgjsLinearGradient1004"><stop stop-color="#0e2a47" offset="0"></stop><stop stop-color="#00459e" offset="1"></stop></linearGradient><radialGradient id="SvgjsRadialGradient1005"><stop stop-color="#ffffff" offset="0.1"></stop><stop stop-color="#1735b3" offset="0.2"></stop><stop stop-color="rgba(23, 53, 179, 0)" offset="1"></stop></radialGradient></defs></svg>